<svg xmlns="http://www.w3.org/2000/svg" viewBox="0 0 400 400" width="100%" height="100%">
  <rect width="400" height="400" fill="#f8fafc" rx="16"/>
  <circle cx="200" cy="200" r="140" fill="#e2e8f0" opacity="0.5"/>
  <!-- Wooden Handle -->
  <rect x="193" y="40" width="14" height="260" fill="#d97706" rx="3"/>
  <rect x="196" y="40" width="4" height="260" fill="#f59e0b"/>
  <!-- Metal Socket -->
  <path d="M 182,280 L 218,280 L 208,310 L 192,310 Z" fill="#334155"/>
  <!-- Rake Head Bar -->
  <rect x="60" y="310" width="280" height="18" rx="4" fill="#0f172a"/>
  <rect x="65" y="313" width="270" height="4" rx="2" fill="#475569"/>
  <!-- 16 Tines -->
  <g fill="#0f172a">
    <rect x="70" y="328" width="6" height="35" rx="2"/>
    <rect x="87" y="328" width="6" height="35" rx="2"/>
    <rect x="104" y="328" width="6" height="35" rx="2"/>
    <rect x="121" y="328" width="6" height="35" rx="2"/>
    <rect x="138" y="328" width="6" height="35" rx="2"/>
    <rect x="155" y="328" width="6" height="35" rx="2"/>
    <rect x="172" y="328" width="6" height="35" rx="2"/>
    <rect x="189" y="328" width="6" height="35" rx="2"/>
    <rect x="205" y="328" width="6" height="35" rx="2"/>
    <rect x="222" y="328" width="6" height="35" rx="2"/>
    <rect x="239" y="328" width="6" height="35" rx="2"/>
    <rect x="256" y="328" width="6" height="35" rx="2"/>
    <rect x="273" y="328" width="6" height="35" rx="2"/>
    <rect x="290" y="328" width="6" height="35" rx="2"/>
    <rect x="307" y="328" width="6" height="35" rx="2"/>
    <rect x="324" y="328" width="6" height="35" rx="2"/>
  </g>
</svg>
